{"title":"The Expendables 2","uid":7691707,"size":1336266539,"categoryP":"video","categoryS":"movies","magnet":"?xt=urn:btih:5c73e958d893f8a71a998ec9dc6bcec4048484c4&amp;dn=The+Expendables+2&amp;tr=udp%3A%2F%2Ftracker.openbittorrent.com%3A80&amp;tr=udp%3A%2F%2Fopen.demonii.com%3A1337&amp;tr=udp%3A%2F%2Ftracker.coppersurfer.tk%3A6969&amp;tr=udp%3A%2F%2Fexodus.desync.com%3A6969","seeders":2,"leechers":2,"uploader":"Gh0stNet","files":4,"time":1349222860,"description":"The Expendables 2 2012 R5 LiNE XViD - ILLUMINATI\n\nVideo\nID : 0\nFormat : MPEG-4 Visual\nFormat profile : Advanced Simple@L5\nFormat settings, BVOP : 2\nFormat settings, QPel : No\nFormat settings, GMC : No warppoints\nFormat settings, Matrix : Default (H.263)\nMuxing mode : Packed bitstream\nCodec ID : XVID\nCodec ID/Hint : XviD\nDuration : 1h 38mn\nBit rate : 1 647 Kbps\nWidth : 720 pixels\nHeight : 288 pixels\nDisplay aspect ratio : 2.500\nFrame rate : 25.000 fps\nColor space : YUV\nChroma subsampling : 4:2:0\nBit depth : 8 bits\nScan type : Progressive\nCompression mode : Lossy\nBits/(Pixel*Frame) : 0.318\nStream size : 1.13 GiB (92%)\nWriting library : XviD 64\n\nAudio\nID : 1\nFormat : MPEG Audio\nFormat version : Version 1\nFormat profile : Layer 3\nMode : Joint stereo\nMode extension : MS Stereo\nCodec ID : 55\nCodec ID/Hint : MP3\nDuration : 1h 38mn\nBit rate mode : Constant\nBit rate : 128 Kbps\nChannel(s) : 2 channels\nSampling rate : 44.1 KHz\nCompression mode : Lossy\nStream size : 89.8 MiB (7%)\nAlignment : Split accross interleaves\nInterleave, duration : 40 ms (1.00 video frame)\nWriting library : LAME3.99r\n\nSources: LUM1X/ TOOTHFAiRY\n\nNotes:\nEnglish Subs hardcoded when needed\n &lt;a href=&quot;\nhttp://imageshack.us/a/img715/553/n92fv.png&quot; rel=&quot;nofollow&quot; target=&quot;_NEW&quot;&gt;\nhttp://imageshack.us/a/img715/553/n92fv.png&lt;/a&gt; &lt;a href=&quot;\nhttp://imageshack.us/a/img545/7485/ixphm.png&quot; rel=&quot;nofollow&quot; target=&quot;_NEW&quot;&gt;\nhttp://imageshack.us/a/img545/7485/ixphm.png&lt;/a&gt; &lt;a href=&quot;\nhttp://imageshack.us/a/img222/5525/00gky.png&quot; rel=&quot;nofollow&quot; target=&quot;_NEW&quot;&gt;\nhttp://imageshack.us/a/img222/5525/00gky.png&lt;/a&gt;","torrent":{"xt":"urn:btih:5c73e958d893f8a71a998ec9dc6bcec4048484c4","amp;dn":"The+Expendables+2","amp;tr":["udp%3A%2F%2Ftracker.openbittorrent.com%3A80","udp%3A%2F%2Fopen.demonii.com%3A1337","udp%3A%2F%2Ftracker.coppersurfer.tk%3A6969","udp%3A%2F%2Fexodus.desync.com%3A6969"],"infoHash":"5c73e958d893f8a71a998ec9dc6bcec4048484c4","infoHashBuffer":{"type":"Buffer","data":[92,115,233,88,216,147,248,167,26,153,142,201,220,107,206,196,4,132,132,196]},"announce":[],"urlList":[]}}